<svg xmlns="http://www.w3.org/2000/svg" viewBox="0 0 1200 520">
<rect width="1200" height="520" fill="#2e5d1f"/>
<circle cx="767" cy="13" r="9" fill="#2e5d1f" opacity="0.56"/>
<circle cx="123" cy="385" r="11" fill="#24501a" opacity="0.67"/>
<circle cx="36" cy="114" r="11" fill="#1e4212" opacity="0.72"/>
<circle cx="859" cy="365" r="10" fill="#528f38" opacity="0.74"/>
<circle cx="971" cy="3" r="14" fill="#528f38" opacity="0.64"/>
<circle cx="187" cy="498" r="9" fill="#1e4212" opacity="0.65"/>
<circle cx="431" cy="179" r="9" fill="#1e4212" opacity="0.79"/>
<circle cx="643" cy="506" r="10" fill="#24501a" opacity="0.62"/>
<circle cx="754" cy="460" r="10" fill="#2e5d1f" opacity="0.78"/>
<circle cx="55" cy="119" r="9" fill="#1e4212" opacity="0.84"/>
<circle cx="1040" cy="198" r="11" fill="#3f772b" opacity="0.57"/>
<circle cx="426" cy="348" r="13" fill="#1e4212" opacity="0.74"/>
<circle cx="205" cy="379" r="8" fill="#528f38" opacity="0.61"/>
<circle cx="1110" cy="358" r="8" fill="#3f772b" opacity="0.84"/>
<circle cx="931" cy="119" r="6" fill="#3f772b" opacity="0.66"/>
<circle cx="79" cy="475" r="12" fill="#3f772b" opacity="0.59"/>
<circle cx="599" cy="460" r="12" fill="#2e5d1f" opacity="0.61"/>
<circle cx="296" cy="292" r="9" fill="#24501a" opacity="0.67"/>
<circle cx="700" cy="188" r="16" fill="#2e5d1f" opacity="0.70"/>
<circle cx="109" cy="25" r="7" fill="#2e5d1f" opacity="0.82"/>
<circle cx="507" cy="33" r="10" fill="#528f38" opacity="0.71"/>
<circle cx="1165" cy="448" r="6" fill="#1e4212" opacity="0.77"/>
<circle cx="644" cy="139" r="12" fill="#1e4212" opacity="0.62"/>
<circle cx="190" cy="2" r="13" fill="#3f772b" opacity="0.89"/>
<circle cx="914" cy="264" r="7" fill="#3f772b" opacity="0.84"/>
<circle cx="609" cy="103" r="10" fill="#2e5d1f" opacity="0.72"/>
<circle cx="934" cy="276" r="6" fill="#3f772b" opacity="0.70"/>
<circle cx="134" cy="189" r="16" fill="#3f772b" opacity="0.60"/>
<circle cx="289" cy="295" r="7" fill="#528f38" opacity="0.83"/>
<circle cx="1174" cy="277" r="7" fill="#528f38" opacity="0.88"/>
<circle cx="198" cy="274" r="12" fill="#2e5d1f" opacity="0.87"/>
<circle cx="906" cy="359" r="13" fill="#528f38" opacity="0.90"/>
<circle cx="780" cy="228" r="11" fill="#1e4212" opacity="0.60"/>
<circle cx="77" cy="11" r="12" fill="#24501a" opacity="0.59"/>
<circle cx="85" cy="328" r="8" fill="#1e4212" opacity="0.84"/>
<circle cx="85" cy="124" r="13" fill="#2e5d1f" opacity="0.72"/>
<circle cx="868" cy="459" r="12" fill="#2e5d1f" opacity="0.81"/>
<circle cx="969" cy="99" r="7" fill="#528f38" opacity="0.64"/>
<circle cx="493" cy="449" r="7" fill="#1e4212" opacity="0.52"/>
<circle cx="874" cy="416" r="7" fill="#2e5d1f" opacity="0.58"/>
<circle cx="538" cy="219" r="9" fill="#2e5d1f" opacity="0.85"/>
<circle cx="90" cy="420" r="15" fill="#1e4212" opacity="0.52"/>
<circle cx="1199" cy="435" r="16" fill="#2e5d1f" opacity="0.57"/>
<circle cx="583" cy="111" r="10" fill="#1e4212" opacity="0.57"/>
<circle cx="3" cy="203" r="15" fill="#528f38" opacity="0.61"/>
<circle cx="836" cy="380" r="14" fill="#528f38" opacity="0.56"/>
<circle cx="356" cy="504" r="12" fill="#24501a" opacity="0.52"/>
<circle cx="376" cy="26" r="11" fill="#24501a" opacity="0.56"/>
<circle cx="1153" cy="42" r="8" fill="#24501a" opacity="0.53"/>
<circle cx="1034" cy="210" r="15" fill="#24501a" opacity="0.60"/>
<circle cx="713" cy="322" r="10" fill="#24501a" opacity="0.73"/>
<circle cx="380" cy="136" r="13" fill="#3f772b" opacity="0.60"/>
<circle cx="475" cy="349" r="9" fill="#3f772b" opacity="0.87"/>
<circle cx="1123" cy="5" r="12" fill="#24501a" opacity="0.90"/>
<circle cx="88" cy="111" r="9" fill="#3f772b" opacity="0.85"/>
<circle cx="1055" cy="192" r="8" fill="#24501a" opacity="0.78"/>
<circle cx="734" cy="513" r="13" fill="#1e4212" opacity="0.77"/>
<circle cx="666" cy="485" r="7" fill="#2e5d1f" opacity="0.61"/>
<circle cx="1068" cy="386" r="8" fill="#3f772b" opacity="0.74"/>
<circle cx="861" cy="106" r="12" fill="#3f772b" opacity="0.70"/>
<circle cx="301" cy="472" r="7" fill="#528f38" opacity="0.83"/>
<circle cx="53" cy="173" r="7" fill="#3f772b" opacity="0.56"/>
<circle cx="530" cy="367" r="12" fill="#1e4212" opacity="0.53"/>
<circle cx="1060" cy="470" r="11" fill="#3f772b" opacity="0.73"/>
<circle cx="178" cy="66" r="9" fill="#1e4212" opacity="0.86"/>
<circle cx="252" cy="130" r="7" fill="#24501a" opacity="0.85"/>
<circle cx="488" cy="323" r="8" fill="#2e5d1f" opacity="0.85"/>
<circle cx="1171" cy="422" r="15" fill="#1e4212" opacity="0.57"/>
<circle cx="1109" cy="407" r="10" fill="#2e5d1f" opacity="0.61"/>
<circle cx="945" cy="56" r="15" fill="#528f38" opacity="0.59"/>
<circle cx="980" cy="239" r="9" fill="#2e5d1f" opacity="0.59"/>
<circle cx="792" cy="207" r="9" fill="#1e4212" opacity="0.89"/>
<circle cx="335" cy="334" r="10" fill="#24501a" opacity="0.63"/>
<circle cx="33" cy="456" r="9" fill="#24501a" opacity="0.89"/>
<circle cx="319" cy="56" r="10" fill="#3f772b" opacity="0.67"/>
<circle cx="1181" cy="60" r="15" fill="#2e5d1f" opacity="0.60"/>
<circle cx="851" cy="1" r="15" fill="#24501a" opacity="0.77"/>
<circle cx="1128" cy="383" r="8" fill="#528f38" opacity="0.53"/>
<circle cx="797" cy="172" r="9" fill="#1e4212" opacity="0.79"/>
<circle cx="360" cy="161" r="10" fill="#528f38" opacity="0.78"/>
<circle cx="665" cy="100" r="13" fill="#528f38" opacity="0.77"/>
<circle cx="1083" cy="320" r="9" fill="#24501a" opacity="0.83"/>
<circle cx="365" cy="109" r="14" fill="#24501a" opacity="0.76"/>
<circle cx="558" cy="230" r="8" fill="#528f38" opacity="0.82"/>
<circle cx="1152" cy="383" r="13" fill="#3f772b" opacity="0.71"/>
<circle cx="760" cy="174" r="14" fill="#2e5d1f" opacity="0.77"/>
<circle cx="270" cy="104" r="6" fill="#2e5d1f" opacity="0.89"/>
<circle cx="734" cy="400" r="11" fill="#24501a" opacity="0.58"/>
<circle cx="836" cy="257" r="8" fill="#1e4212" opacity="0.86"/>
<circle cx="1033" cy="460" r="14" fill="#2e5d1f" opacity="0.57"/>
<circle cx="1150" cy="269" r="7" fill="#2e5d1f" opacity="0.87"/>
<circle cx="146" cy="69" r="11" fill="#24501a" opacity="0.90"/>
<circle cx="715" cy="494" r="15" fill="#24501a" opacity="0.83"/>
<circle cx="1070" cy="222" r="15" fill="#528f38" opacity="0.86"/>
<circle cx="892" cy="247" r="9" fill="#2e5d1f" opacity="0.84"/>
<circle cx="333" cy="404" r="11" fill="#2e5d1f" opacity="0.61"/>
<circle cx="93" cy="149" r="9" fill="#3f772b" opacity="0.86"/>
<circle cx="97" cy="78" r="10" fill="#2e5d1f" opacity="0.78"/>
<circle cx="77" cy="212" r="11" fill="#528f38" opacity="0.52"/>
<circle cx="999" cy="203" r="14" fill="#1e4212" opacity="0.84"/>
<circle cx="919" cy="198" r="6" fill="#3f772b" opacity="0.62"/>
<circle cx="468" cy="464" r="14" fill="#24501a" opacity="0.80"/>
<circle cx="655" cy="314" r="8" fill="#2e5d1f" opacity="0.61"/>
<circle cx="583" cy="202" r="13" fill="#528f38" opacity="0.79"/>
<circle cx="1009" cy="478" r="16" fill="#24501a" opacity="0.51"/>
<circle cx="473" cy="293" r="6" fill="#528f38" opacity="0.55"/>
<circle cx="554" cy="26" r="10" fill="#2e5d1f" opacity="0.68"/>
<circle cx="405" cy="457" r="9" fill="#528f38" opacity="0.60"/>
<circle cx="98" cy="10" r="11" fill="#3f772b" opacity="0.59"/>
<circle cx="82" cy="498" r="6" fill="#1e4212" opacity="0.88"/>
<circle cx="239" cy="11" r="8" fill="#2e5d1f" opacity="0.69"/>
<circle cx="137" cy="493" r="11" fill="#3f772b" opacity="0.81"/>
<circle cx="201" cy="316" r="13" fill="#1e4212" opacity="0.81"/>
<circle cx="197" cy="162" r="12" fill="#3f772b" opacity="0.73"/>
<circle cx="1090" cy="195" r="15" fill="#2e5d1f" opacity="0.53"/>
<circle cx="829" cy="326" r="7" fill="#3f772b" opacity="0.84"/>
<circle cx="720" cy="63" r="16" fill="#1e4212" opacity="0.64"/>
<circle cx="514" cy="193" r="11" fill="#3f772b" opacity="0.51"/>
<circle cx="504" cy="255" r="10" fill="#3f772b" opacity="0.75"/>
<circle cx="994" cy="368" r="10" fill="#24501a" opacity="0.89"/>
<circle cx="324" cy="420" r="11" fill="#528f38" opacity="0.69"/>
<circle cx="991" cy="308" r="9" fill="#2e5d1f" opacity="0.83"/>
<circle cx="104" cy="458" r="8" fill="#528f38" opacity="0.73"/>
<circle cx="802" cy="175" r="11" fill="#3f772b" opacity="0.57"/>
<circle cx="255" cy="415" r="9" fill="#24501a" opacity="0.78"/>
<circle cx="332" cy="5" r="15" fill="#1e4212" opacity="0.60"/>
<circle cx="488" cy="289" r="8" fill="#528f38" opacity="0.76"/>
<circle cx="589" cy="412" r="7" fill="#2e5d1f" opacity="0.66"/>
<circle cx="292" cy="345" r="10" fill="#24501a" opacity="0.71"/>
<circle cx="511" cy="388" r="9" fill="#528f38" opacity="0.61"/>
<circle cx="302" cy="63" r="8" fill="#1e4212" opacity="0.80"/>
<circle cx="1141" cy="359" r="8" fill="#528f38" opacity="0.61"/>
<circle cx="708" cy="395" r="12" fill="#1e4212" opacity="0.83"/>
<circle cx="355" cy="188" r="9" fill="#24501a" opacity="0.55"/>
<circle cx="55" cy="28" r="9" fill="#2e5d1f" opacity="0.76"/>
<circle cx="903" cy="53" r="6" fill="#3f772b" opacity="0.69"/>
<circle cx="529" cy="96" r="7" fill="#528f38" opacity="0.55"/>
<circle cx="78" cy="256" r="12" fill="#1e4212" opacity="0.56"/>
<circle cx="973" cy="494" r="7" fill="#2e5d1f" opacity="0.55"/>
<circle cx="917" cy="315" r="14" fill="#2e5d1f" opacity="0.81"/>
<circle cx="456" cy="472" r="9" fill="#24501a" opacity="0.90"/>
<circle cx="366" cy="323" r="12" fill="#1e4212" opacity="0.88"/>
<circle cx="249" cy="110" r="13" fill="#2e5d1f" opacity="0.60"/>
<circle cx="662" cy="81" r="10" fill="#24501a" opacity="0.69"/>
<circle cx="39" cy="150" r="9" fill="#528f38" opacity="0.53"/>
<circle cx="280" cy="138" r="14" fill="#24501a" opacity="0.76"/>
<circle cx="1120" cy="221" r="11" fill="#2e5d1f" opacity="0.86"/>
<circle cx="992" cy="37" r="8" fill="#3f772b" opacity="0.74"/>
<circle cx="989" cy="479" r="10" fill="#528f38" opacity="0.78"/>
<circle cx="840" cy="490" r="11" fill="#528f38" opacity="0.68"/>
<circle cx="718" cy="462" r="13" fill="#24501a" opacity="0.60"/>
<circle cx="110" cy="500" r="14" fill="#24501a" opacity="0.73"/>
<circle cx="25" cy="398" r="14" fill="#24501a" opacity="0.52"/>
<circle cx="908" cy="245" r="13" fill="#3f772b" opacity="0.57"/>
<circle cx="702" cy="330" r="11" fill="#1e4212" opacity="0.69"/>
<circle cx="490" cy="167" r="7" fill="#2e5d1f" opacity="0.63"/>
<circle cx="832" cy="150" r="15" fill="#24501a" opacity="0.51"/>
<circle cx="106" cy="131" r="7" fill="#528f38" opacity="0.85"/>
<circle cx="990" cy="1" r="15" fill="#528f38" opacity="0.67"/>
<circle cx="225" cy="188" r="14" fill="#528f38" opacity="0.80"/>
<circle cx="244" cy="286" r="15" fill="#528f38" opacity="0.85"/>
<circle cx="582" cy="15" r="12" fill="#2e5d1f" opacity="0.78"/>
<circle cx="373" cy="7" r="10" fill="#2e5d1f" opacity="0.90"/>
<circle cx="1096" cy="240" r="7" fill="#2e5d1f" opacity="0.70"/>
<circle cx="860" cy="265" r="9" fill="#528f38" opacity="0.89"/>
<circle cx="292" cy="287" r="10" fill="#24501a" opacity="0.70"/>
<circle cx="1055" cy="449" r="9" fill="#528f38" opacity="0.64"/>
<circle cx="945" cy="139" r="6" fill="#3f772b" opacity="0.83"/>
<circle cx="696" cy="343" r="15" fill="#528f38" opacity="0.72"/>
<circle cx="414" cy="287" r="11" fill="#528f38" opacity="0.87"/>
<circle cx="1044" cy="510" r="8" fill="#528f38" opacity="0.59"/>
<circle cx="931" cy="23" r="13" fill="#528f38" opacity="0.65"/>
<circle cx="796" cy="427" r="16" fill="#528f38" opacity="0.89"/>
<circle cx="151" cy="502" r="9" fill="#1e4212" opacity="0.85"/>
<circle cx="528" cy="273" r="11" fill="#2e5d1f" opacity="0.66"/>
<circle cx="786" cy="80" r="11" fill="#3f772b" opacity="0.64"/>
<circle cx="831" cy="338" r="15" fill="#24501a" opacity="0.65"/>
<circle cx="380" cy="374" r="14" fill="#24501a" opacity="0.51"/>
<circle cx="82" cy="328" r="15" fill="#2e5d1f" opacity="0.80"/>
<circle cx="521" cy="51" r="12" fill="#1e4212" opacity="0.68"/>
<circle cx="833" cy="470" r="6" fill="#1e4212" opacity="0.62"/>
<circle cx="450" cy="76" r="11" fill="#24501a" opacity="0.77"/>
<circle cx="216" cy="91" r="12" fill="#528f38" opacity="0.75"/>
<circle cx="289" cy="475" r="7" fill="#528f38" opacity="0.76"/>
<circle cx="551" cy="347" r="15" fill="#528f38" opacity="0.86"/>
<circle cx="813" cy="82" r="10" fill="#3f772b" opacity="0.90"/>
<circle cx="359" cy="500" r="13" fill="#528f38" opacity="0.84"/>
<circle cx="239" cy="200" r="11" fill="#2e5d1f" opacity="0.65"/>
<circle cx="431" cy="154" r="13" fill="#1e4212" opacity="0.89"/>
<circle cx="790" cy="143" r="12" fill="#1e4212" opacity="0.86"/>
<circle cx="894" cy="433" r="15" fill="#2e5d1f" opacity="0.74"/>
<circle cx="423" cy="331" r="12" fill="#2e5d1f" opacity="0.75"/>
<circle cx="1084" cy="336" r="9" fill="#528f38" opacity="0.51"/>
<circle cx="438" cy="68" r="15" fill="#3f772b" opacity="0.80"/>
<circle cx="211" cy="69" r="11" fill="#3f772b" opacity="0.71"/>
<circle cx="1096" cy="432" r="9" fill="#528f38" opacity="0.89"/>
<circle cx="354" cy="453" r="14" fill="#528f38" opacity="0.89"/>
<circle cx="169" cy="503" r="15" fill="#528f38" opacity="0.89"/>
<circle cx="966" cy="190" r="14" fill="#1e4212" opacity="0.61"/>
<circle cx="148" cy="192" r="13" fill="#3f772b" opacity="0.73"/>
<circle cx="987" cy="489" r="7" fill="#2e5d1f" opacity="0.69"/>
<circle cx="743" cy="490" r="9" fill="#24501a" opacity="0.59"/>
<circle cx="76" cy="428" r="15" fill="#3f772b" opacity="0.76"/>
<circle cx="140" cy="24" r="6" fill="#528f38" opacity="0.55"/>
<circle cx="282" cy="280" r="10" fill="#3f772b" opacity="0.77"/>
<circle cx="892" cy="492" r="10" fill="#2e5d1f" opacity="0.85"/>
<circle cx="786" cy="434" r="12" fill="#3f772b" opacity="0.51"/>
<circle cx="445" cy="231" r="16" fill="#3f772b" opacity="0.54"/>
<circle cx="823" cy="283" r="16" fill="#3f772b" opacity="0.52"/>
<circle cx="331" cy="503" r="15" fill="#528f38" opacity="0.54"/>
<circle cx="255" cy="333" r="16" fill="#1e4212" opacity="0.81"/>
<circle cx="292" cy="65" r="12" fill="#1e4212" opacity="0.83"/>
<circle cx="665" cy="305" r="14" fill="#2e5d1f" opacity="0.63"/>
<circle cx="177" cy="468" r="6" fill="#2e5d1f" opacity="0.90"/>
<circle cx="648" cy="415" r="7" fill="#1e4212" opacity="0.55"/>
<circle cx="430" cy="410" r="12" fill="#1e4212" opacity="0.57"/>
<circle cx="63" cy="386" r="11" fill="#1e4212" opacity="0.69"/>
<circle cx="934" cy="267" r="7" fill="#24501a" opacity="0.59"/>
<circle cx="738" cy="378" r="15" fill="#24501a" opacity="0.62"/>
<circle cx="772" cy="16" r="16" fill="#528f38" opacity="0.67"/>
<circle cx="130" cy="370" r="10" fill="#1e4212" opacity="0.63"/>
<circle cx="178" cy="66" r="12" fill="#24501a" opacity="0.72"/>
<circle cx="390" cy="517" r="11" fill="#528f38" opacity="0.70"/>
<circle cx="516" cy="412" r="7" fill="#24501a" opacity="0.79"/>
<circle cx="258" cy="235" r="8" fill="#3f772b" opacity="0.83"/>
<circle cx="478" cy="379" r="9" fill="#3f772b" opacity="0.77"/>
<circle cx="449" cy="79" r="15" fill="#1e4212" opacity="0.54"/>
<circle cx="102" cy="225" r="13" fill="#3f772b" opacity="0.82"/>
<circle cx="668" cy="305" r="12" fill="#3f772b" opacity="0.77"/>
<circle cx="493" cy="454" r="15" fill="#528f38" opacity="0.85"/>
<circle cx="865" cy="504" r="12" fill="#3f772b" opacity="0.54"/>
<circle cx="609" cy="80" r="11" fill="#1e4212" opacity="0.64"/>
<circle cx="668" cy="60" r="9" fill="#2e5d1f" opacity="0.82"/>
<circle cx="1014" cy="507" r="14" fill="#24501a" opacity="0.77"/>
<circle cx="668" cy="317" r="13" fill="#3f772b" opacity="0.51"/>
<circle cx="328" cy="396" r="15" fill="#3f772b" opacity="0.50"/>
<circle cx="1044" cy="294" r="10" fill="#2e5d1f" opacity="0.80"/>
<circle cx="1166" cy="48" r="11" fill="#528f38" opacity="0.67"/>
<circle cx="409" cy="192" r="13" fill="#24501a" opacity="0.74"/>
<circle cx="1060" cy="81" r="14" fill="#1e4212" opacity="0.77"/>
<circle cx="327" cy="344" r="11" fill="#528f38" opacity="0.67"/>
<circle cx="259" cy="266" r="9" fill="#1e4212" opacity="0.61"/>
<circle cx="814" cy="253" r="13" fill="#1e4212" opacity="0.59"/>
<circle cx="1181" cy="28" r="8" fill="#2e5d1f" opacity="0.81"/>
<circle cx="917" cy="151" r="7" fill="#528f38" opacity="0.80"/>
<circle cx="211" cy="198" r="13" fill="#24501a" opacity="0.72"/>
<circle cx="802" cy="184" r="10" fill="#1e4212" opacity="0.67"/>
<circle cx="552" cy="40" r="9" fill="#528f38" opacity="0.73"/>
<circle cx="851" cy="217" r="7" fill="#1e4212" opacity="0.89"/>
<circle cx="206" cy="493" r="11" fill="#3f772b" opacity="0.54"/>
<circle cx="1013" cy="127" r="12" fill="#24501a" opacity="0.53"/>
<circle cx="1045" cy="388" r="8" fill="#2e5d1f" opacity="0.53"/>
<circle cx="760" cy="276" r="8" fill="#3f772b" opacity="0.64"/>
<circle cx="1150" cy="336" r="7" fill="#1e4212" opacity="0.56"/>
<circle cx="237" cy="313" r="14" fill="#1e4212" opacity="0.57"/>
<circle cx="927" cy="257" r="14" fill="#24501a" opacity="0.68"/>
<circle cx="1109" cy="294" r="12" fill="#24501a" opacity="0.63"/>
<circle cx="1165" cy="164" r="10" fill="#528f38" opacity="0.68"/>
<circle cx="363" cy="143" r="7" fill="#24501a" opacity="0.53"/>
<circle cx="554" cy="20" r="10" fill="#3f772b" opacity="0.53"/>
<circle cx="1037" cy="445" r="12" fill="#24501a" opacity="0.65"/>
<circle cx="696" cy="496" r="13" fill="#1e4212" opacity="0.68"/>
<circle cx="972" cy="339" r="9" fill="#528f38" opacity="0.70"/>
<circle cx="1149" cy="234" r="14" fill="#3f772b" opacity="0.89"/>
<circle cx="101" cy="336" r="6" fill="#528f38" opacity="0.90"/>
<circle cx="629" cy="317" r="10" fill="#3f772b" opacity="0.65"/>
<circle cx="929" cy="353" r="7" fill="#3f772b" opacity="0.53"/>
<circle cx="113" cy="353" r="9" fill="#24501a" opacity="0.85"/>
<circle cx="400" cy="303" r="7" fill="#3f772b" opacity="0.62"/>
<circle cx="787" cy="344" r="7" fill="#1e4212" opacity="0.62"/>
<circle cx="452" cy="412" r="14" fill="#24501a" opacity="0.54"/>
<circle cx="805" cy="264" r="6" fill="#3f772b" opacity="0.57"/>
<circle cx="257" cy="493" r="11" fill="#2e5d1f" opacity="0.90"/>
<circle cx="186" cy="154" r="14" fill="#24501a" opacity="0.81"/>
<circle cx="1002" cy="460" r="6" fill="#3f772b" opacity="0.85"/>
<circle cx="742" cy="311" r="8" fill="#2e5d1f" opacity="0.83"/>
<circle cx="925" cy="421" r="8" fill="#528f38" opacity="0.52"/>
<circle cx="437" cy="374" r="16" fill="#24501a" opacity="0.61"/>
<circle cx="898" cy="233" r="11" fill="#3f772b" opacity="0.89"/>
<circle cx="941" cy="470" r="8" fill="#24501a" opacity="0.89"/>
<circle cx="554" cy="147" r="10" fill="#24501a" opacity="0.67"/>
<circle cx="194" cy="104" r="12" fill="#3f772b" opacity="0.52"/>
<circle cx="577" cy="193" r="15" fill="#24501a" opacity="0.84"/>
<circle cx="342" cy="397" r="9" fill="#24501a" opacity="0.56"/>
<circle cx="525" cy="492" r="8" fill="#528f38" opacity="0.85"/>
<circle cx="1117" cy="216" r="10" fill="#3f772b" opacity="0.59"/>
<circle cx="1193" cy="195" r="6" fill="#1e4212" opacity="0.84"/>
<circle cx="780" cy="412" r="7" fill="#3f772b" opacity="0.87"/>
<circle cx="567" cy="432" r="14" fill="#528f38" opacity="0.68"/>
<circle cx="6" cy="41" r="9" fill="#2e5d1f" opacity="0.72"/>
<circle cx="873" cy="274" r="7" fill="#3f772b" opacity="0.60"/>
<circle cx="146" cy="124" r="12" fill="#24501a" opacity="0.68"/>
<circle cx="133" cy="471" r="12" fill="#1e4212" opacity="0.75"/>
<circle cx="690" cy="374" r="9" fill="#1e4212" opacity="0.75"/>
<circle cx="289" cy="217" r="13" fill="#1e4212" opacity="0.71"/>
<circle cx="433" cy="496" r="11" fill="#24501a" opacity="0.72"/>
<circle cx="469" cy="244" r="12" fill="#3f772b" opacity="0.60"/>
<circle cx="19" cy="410" r="9" fill="#1e4212" opacity="0.81"/>
<circle cx="882" cy="173" r="6" fill="#24501a" opacity="0.64"/>
<circle cx="771" cy="432" r="13" fill="#528f38" opacity="0.75"/>
<circle cx="974" cy="33" r="14" fill="#528f38" opacity="0.51"/>
<circle cx="242" cy="411" r="15" fill="#3f772b" opacity="0.87"/>
<circle cx="618" cy="514" r="11" fill="#3f772b" opacity="0.51"/>
<circle cx="776" cy="149" r="15" fill="#1e4212" opacity="0.85"/>
<circle cx="398" cy="65" r="10" fill="#528f38" opacity="0.80"/>
<circle cx="1074" cy="201" r="16" fill="#528f38" opacity="0.78"/>
<circle cx="441" cy="415" r="9" fill="#1e4212" opacity="0.79"/>
<circle cx="95" cy="313" r="14" fill="#24501a" opacity="0.62"/>
<circle cx="123" cy="171" r="9" fill="#528f38" opacity="0.74"/>
<circle cx="511" cy="359" r="10" fill="#1e4212" opacity="0.79"/>
<circle cx="1094" cy="320" r="10" fill="#1e4212" opacity="0.53"/>
<circle cx="765" cy="189" r="14" fill="#2e5d1f" opacity="0.88"/>
<circle cx="171" cy="316" r="14" fill="#1e4212" opacity="0.55"/>
<circle cx="283" cy="335" r="10" fill="#24501a" opacity="0.51"/>
<circle cx="184" cy="234" r="10" fill="#528f38" opacity="0.81"/>
<circle cx="689" cy="275" r="10" fill="#3f772b" opacity="0.60"/>
<circle cx="136" cy="383" r="11" fill="#528f38" opacity="0.87"/>
<circle cx="141" cy="403" r="13" fill="#2e5d1f" opacity="0.90"/>
<circle cx="343" cy="477" r="11" fill="#1e4212" opacity="0.55"/>
<circle cx="89" cy="90" r="13" fill="#1e4212" opacity="0.82"/>
<circle cx="1161" cy="513" r="13" fill="#1e4212" opacity="0.72"/>
<circle cx="348" cy="156" r="8" fill="#2e5d1f" opacity="0.82"/>
<circle cx="611" cy="63" r="8" fill="#2e5d1f" opacity="0.59"/>
<circle cx="593" cy="188" r="12" fill="#528f38" opacity="0.82"/>
<circle cx="662" cy="318" r="7" fill="#3f772b" opacity="0.66"/>
<circle cx="860" cy="249" r="10" fill="#528f38" opacity="0.83"/>
<circle cx="89" cy="506" r="12" fill="#528f38" opacity="0.69"/>
<circle cx="621" cy="67" r="14" fill="#24501a" opacity="0.76"/>
<circle cx="218" cy="502" r="10" fill="#1e4212" opacity="0.83"/>
<circle cx="622" cy="158" r="8" fill="#2e5d1f" opacity="0.64"/>
<circle cx="1129" cy="465" r="14" fill="#3f772b" opacity="0.58"/>
<circle cx="1148" cy="143" r="12" fill="#24501a" opacity="0.71"/>
<circle cx="603" cy="88" r="15" fill="#2e5d1f" opacity="0.57"/>
<circle cx="749" cy="469" r="9" fill="#24501a" opacity="0.52"/>
<circle cx="1037" cy="42" r="15" fill="#24501a" opacity="0.61"/>
<circle cx="253" cy="298" r="12" fill="#1e4212" opacity="0.70"/>
<circle cx="753" cy="151" r="16" fill="#528f38" opacity="0.60"/>
<circle cx="969" cy="211" r="11" fill="#1e4212" opacity="0.56"/>
<circle cx="499" cy="242" r="9" fill="#2e5d1f" opacity="0.63"/>
<circle cx="862" cy="382" r="15" fill="#528f38" opacity="0.55"/>
<circle cx="445" cy="292" r="9" fill="#528f38" opacity="0.55"/>
<circle cx="540" cy="73" r="7" fill="#528f38" opacity="0.85"/>
<circle cx="502" cy="501" r="15" fill="#3f772b" opacity="0.87"/>
<circle cx="865" cy="99" r="8" fill="#24501a" opacity="0.69"/>
<circle cx="1055" cy="259" r="7" fill="#528f38" opacity="0.70"/>
<circle cx="1160" cy="112" r="10" fill="#1e4212" opacity="0.61"/>
<circle cx="717" cy="438" r="13" fill="#3f772b" opacity="0.71"/>
<circle cx="1017" cy="224" r="15" fill="#3f772b" opacity="0.81"/>
<circle cx="439" cy="208" r="12" fill="#2e5d1f" opacity="0.65"/>
<circle cx="346" cy="201" r="11" fill="#24501a" opacity="0.61"/>
<circle cx="1187" cy="354" r="7" fill="#1e4212" opacity="0.66"/>
<circle cx="954" cy="176" r="15" fill="#2e5d1f" opacity="0.58"/>
<circle cx="611" cy="260" r="6" fill="#2e5d1f" opacity="0.79"/>
<circle cx="965" cy="270" r="7" fill="#24501a" opacity="0.56"/>
<circle cx="1118" cy="166" r="10" fill="#24501a" opacity="0.80"/>
<circle cx="359" cy="175" r="14" fill="#24501a" opacity="0.70"/>
<circle cx="676" cy="247" r="6" fill="#3f772b" opacity="0.77"/>
<circle cx="1176" cy="304" r="14" fill="#1e4212" opacity="0.74"/>
<circle cx="319" cy="341" r="16" fill="#24501a" opacity="0.73"/>
<circle cx="866" cy="303" r="8" fill="#24501a" opacity="0.81"/>
<circle cx="456" cy="427" r="8" fill="#24501a" opacity="0.88"/>
<circle cx="132" cy="10" r="9" fill="#2e5d1f" opacity="0.67"/>
<circle cx="245" cy="261" r="12" fill="#528f38" opacity="0.85"/>
<circle cx="883" cy="32" r="7" fill="#2e5d1f" opacity="0.72"/>
<circle cx="1198" cy="249" r="10" fill="#2e5d1f" opacity="0.68"/>
<circle cx="640" cy="284" r="13" fill="#3f772b" opacity="0.74"/>
<circle cx="231" cy="128" r="12" fill="#2e5d1f" opacity="0.88"/>
<circle cx="1179" cy="401" r="13" fill="#528f38" opacity="0.63"/>
<circle cx="419" cy="486" r="14" fill="#3f772b" opacity="0.62"/>
<circle cx="688" cy="282" r="15" fill="#528f38" opacity="0.83"/>
<circle cx="1146" cy="418" r="9" fill="#3f772b" opacity="0.88"/>
<circle cx="95" cy="480" r="13" fill="#528f38" opacity="0.59"/>
<circle cx="994" cy="141" r="12" fill="#3f772b" opacity="0.55"/>
<circle cx="739" cy="305" r="8" fill="#24501a" opacity="0.59"/>
<circle cx="279" cy="52" r="9" fill="#528f38" opacity="0.54"/>
<circle cx="925" cy="3" r="12" fill="#2e5d1f" opacity="0.66"/>
<circle cx="1122" cy="457" r="11" fill="#2e5d1f" opacity="0.80"/>
<circle cx="345" cy="148" r="7" fill="#1e4212" opacity="0.76"/>
<circle cx="279" cy="384" r="15" fill="#1e4212" opacity="0.87"/>
<circle cx="210" cy="459" r="8" fill="#1e4212" opacity="0.90"/>
<circle cx="476" cy="258" r="15" fill="#3f772b" opacity="0.85"/>
<circle cx="11" cy="295" r="7" fill="#3f772b" opacity="0.61"/>
<circle cx="1187" cy="283" r="11" fill="#2e5d1f" opacity="0.84"/>
<circle cx="562" cy="100" r="7" fill="#2e5d1f" opacity="0.79"/>
<circle cx="778" cy="374" r="6" fill="#3f772b" opacity="0.82"/>
<circle cx="681" cy="394" r="8" fill="#528f38" opacity="0.83"/>
<circle cx="618" cy="45" r="13" fill="#2e5d1f" opacity="0.89"/>
<circle cx="573" cy="487" r="6" fill="#528f38" opacity="0.59"/>
<circle cx="905" cy="496" r="9" fill="#24501a" opacity="0.50"/>
<circle cx="784" cy="360" r="7" fill="#1e4212" opacity="0.69"/>
<circle cx="192" cy="357" r="15" fill="#3f772b" opacity="0.78"/>
<circle cx="766" cy="489" r="10" fill="#2e5d1f" opacity="0.59"/>
<circle cx="160" cy="80" r="13" fill="#24501a" opacity="0.65"/>
<circle cx="842" cy="475" r="14" fill="#2e5d1f" opacity="0.80"/>
<circle cx="816" cy="310" r="14" fill="#24501a" opacity="0.68"/>
<circle cx="845" cy="41" r="12" fill="#1e4212" opacity="0.83"/>
<circle cx="1083" cy="105" r="11" fill="#2e5d1f" opacity="0.63"/>
<circle cx="624" cy="60" r="8" fill="#24501a" opacity="0.70"/>
<circle cx="1079" cy="232" r="7" fill="#2e5d1f" opacity="0.71"/>
<circle cx="548" cy="30" r="11" fill="#3f772b" opacity="0.79"/>
<circle cx="475" cy="425" r="13" fill="#24501a" opacity="0.53"/>
<circle cx="508" cy="364" r="11" fill="#1e4212" opacity="0.87"/>
<circle cx="83" cy="486" r="6" fill="#528f38" opacity="0.57"/>
<circle cx="163" cy="334" r="13" fill="#528f38" opacity="0.65"/>
<circle cx="1070" cy="233" r="15" fill="#528f38" opacity="0.65"/>
<circle cx="819" cy="344" r="11" fill="#3f772b" opacity="0.55"/>
<circle cx="1191" cy="204" r="7" fill="#2e5d1f" opacity="0.83"/>
<circle cx="907" cy="509" r="11" fill="#24501a" opacity="0.67"/>
<circle cx="455" cy="119" r="11" fill="#2e5d1f" opacity="0.61"/>
<circle cx="1125" cy="377" r="7" fill="#528f38" opacity="0.75"/>
<circle cx="1123" cy="462" r="8" fill="#1e4212" opacity="0.54"/>
<circle cx="40" cy="311" r="13" fill="#1e4212" opacity="0.60"/>
<circle cx="53" cy="228" r="11" fill="#1e4212" opacity="0.56"/>
<circle cx="1192" cy="122" r="15" fill="#24501a" opacity="0.63"/>
<circle cx="718" cy="350" r="9" fill="#3f772b" opacity="0.85"/>
<circle cx="1183" cy="271" r="10" fill="#3f772b" opacity="0.52"/>
<circle cx="1138" cy="457" r="15" fill="#528f38" opacity="0.72"/>
<circle cx="56" cy="179" r="12" fill="#528f38" opacity="0.81"/>
<circle cx="382" cy="216" r="7" fill="#528f38" opacity="0.57"/>
<circle cx="646" cy="125" r="8" fill="#2e5d1f" opacity="0.82"/>
<path d="M0 380 C 300 320, 500 460, 780 400 S 1100 330, 1200 370" stroke="#7fa8c9" stroke-width="18" fill="none" opacity="0.85" stroke-linecap="round"/>
</svg>