<svg xmlns="http://www.w3.org/2000/svg" viewBox="0 0 800 500">
<rect width="800" height="500" fill="#eef3e6"/>
<g stroke="#9fcb6b" stroke-width="1.6" opacity="0.55">
<line x1="140" y1="100" x2="340" y2="70"/>
<line x1="140" y1="100" x2="340" y2="160"/>
<line x1="140" y1="100" x2="340" y2="250"/>
<line x1="140" y1="100" x2="340" y2="340"/>
<line x1="140" y1="100" x2="340" y2="430"/>
<line x1="140" y1="200" x2="340" y2="70"/>
<line x1="140" y1="200" x2="340" y2="160"/>
<line x1="140" y1="200" x2="340" y2="250"/>
<line x1="140" y1="200" x2="340" y2="340"/>
<line x1="140" y1="200" x2="340" y2="430"/>
<line x1="140" y1="300" x2="340" y2="70"/>
<line x1="140" y1="300" x2="340" y2="160"/>
<line x1="140" y1="300" x2="340" y2="250"/>
<line x1="140" y1="300" x2="340" y2="340"/>
<line x1="140" y1="300" x2="340" y2="430"/>
<line x1="140" y1="400" x2="340" y2="70"/>
<line x1="140" y1="400" x2="340" y2="160"/>
<line x1="140" y1="400" x2="340" y2="250"/>
<line x1="140" y1="400" x2="340" y2="340"/>
<line x1="140" y1="400" x2="340" y2="430"/>
<line x1="340" y1="70" x2="540" y2="70"/>
<line x1="340" y1="70" x2="540" y2="160"/>
<line x1="340" y1="70" x2="540" y2="250"/>
<line x1="340" y1="70" x2="540" y2="340"/>
<line x1="340" y1="70" x2="540" y2="430"/>
<line x1="340" y1="160" x2="540" y2="70"/>
<line x1="340" y1="160" x2="540" y2="160"/>
<line x1="340" y1="160" x2="540" y2="250"/>
<line x1="340" y1="160" x2="540" y2="340"/>
<line x1="340" y1="160" x2="540" y2="430"/>
<line x1="340" y1="250" x2="540" y2="70"/>
<line x1="340" y1="250" x2="540" y2="160"/>
<line x1="340" y1="250" x2="540" y2="250"/>
<line x1="340" y1="250" x2="540" y2="340"/>
<line x1="340" y1="250" x2="540" y2="430"/>
<line x1="340" y1="340" x2="540" y2="70"/>
<line x1="340" y1="340" x2="540" y2="160"/>
<line x1="340" y1="340" x2="540" y2="250"/>
<line x1="340" y1="340" x2="540" y2="340"/>
<line x1="340" y1="340" x2="540" y2="430"/>
<line x1="340" y1="430" x2="540" y2="70"/>
<line x1="340" y1="430" x2="540" y2="160"/>
<line x1="340" y1="430" x2="540" y2="250"/>
<line x1="340" y1="430" x2="540" y2="340"/>
<line x1="340" y1="430" x2="540" y2="430"/>
<line x1="540" y1="70" x2="700" y2="180"/>
<line x1="540" y1="70" x2="700" y2="320"/>
<line x1="540" y1="160" x2="700" y2="180"/>
<line x1="540" y1="160" x2="700" y2="320"/>
<line x1="540" y1="250" x2="700" y2="180"/>
<line x1="540" y1="250" x2="700" y2="320"/>
<line x1="540" y1="340" x2="700" y2="180"/>
<line x1="540" y1="340" x2="700" y2="320"/>
<line x1="540" y1="430" x2="700" y2="180"/>
<line x1="540" y1="430" x2="700" y2="320"/>
</g>
<circle cx="140" cy="100" r="17" fill="#365902" stroke="#7fb04f" stroke-width="3"/>
<circle cx="140" cy="200" r="17" fill="#365902" stroke="#7fb04f" stroke-width="3"/>
<circle cx="140" cy="300" r="17" fill="#365902" stroke="#7fb04f" stroke-width="3"/>
<circle cx="140" cy="400" r="17" fill="#365902" stroke="#7fb04f" stroke-width="3"/>
<circle cx="340" cy="70" r="17" fill="#365902" stroke="#7fb04f" stroke-width="3"/>
<circle cx="340" cy="160" r="17" fill="#365902" stroke="#7fb04f" stroke-width="3"/>
<circle cx="340" cy="250" r="17" fill="#365902" stroke="#7fb04f" stroke-width="3"/>
<circle cx="340" cy="340" r="17" fill="#365902" stroke="#7fb04f" stroke-width="3"/>
<circle cx="340" cy="430" r="17" fill="#365902" stroke="#7fb04f" stroke-width="3"/>
<circle cx="540" cy="70" r="17" fill="#365902" stroke="#7fb04f" stroke-width="3"/>
<circle cx="540" cy="160" r="17" fill="#365902" stroke="#7fb04f" stroke-width="3"/>
<circle cx="540" cy="250" r="17" fill="#365902" stroke="#7fb04f" stroke-width="3"/>
<circle cx="540" cy="340" r="17" fill="#365902" stroke="#7fb04f" stroke-width="3"/>
<circle cx="540" cy="430" r="17" fill="#365902" stroke="#7fb04f" stroke-width="3"/>
<circle cx="700" cy="180" r="17" fill="#365902" stroke="#7fb04f" stroke-width="3"/>
<circle cx="700" cy="320" r="17" fill="#365902" stroke="#7fb04f" stroke-width="3"/>
</svg>